Coordinates
version=1
nRows=18
nColumns=34
inDegrees=no

Units are S.I. units (second, meters, Newtons, ...)
If the header above contains a line with 'inDegrees', this indicates whether rotational values are in degrees (yes) or radians (no).

endheader
time	pelvis_tilt	pelvis_list	pelvis_rotation	pelvis_tx	pelvis_ty	pelvis_tz	hip_flexion_r	hip_adduction_r	hip_rotation_r	knee_angle_r	ankle_angle_r	subtalar_angle_r	mtp_angle_r	hip_flexion_l	hip_adduction_l	hip_rotation_l	knee_angle_l	ankle_angle_l	subtalar_angle_l	mtp_angle_l	lumbar_extension	lumbar_bending	lumbar_rotation	arm_flex_r	arm_add_r	arm_rot_r	elbow_flex_r	pro_sup_r	arm_flex_l	arm_add_l	arm_rot_l	elbow_flex_l	pro_sup_l
0	0.202121	-0.0749646	0.0162901	-1.08847	1.37053	-0.579025	-0.206948	0.0472742	0.0299291	0.159208	0.197553	0.0668299	-0.129736	-0.22505	-0.134107	-0.213564	0.169887	0.313477	0.380805	-0.129736	-0.413857	0.0990855	0.017637	0.000216489	-0.250893	0.0200322	0.732629	1.66084	-0.0625338	-0.228402	0.059776	0.844532	1.5337
0.01	0.197208	-0.0726565	0.0163784	-1.08889	1.37018	-0.578989	-0.199002	0.0449344	0.0288767	0.16356	0.200577	0.06859	-0.129736	-0.218002	-0.131638	-0.208857	0.172043	0.31377	0.377908	-0.129736	-0.411109	0.0967676	0.0167412	0.000659081	-0.250523	0.0177275	0.732568	1.65927	-0.0616457	-0.228344	0.0595009	0.845384	1.52484
0.02	0.192212	-0.0706526	0.016542	-1.08929	1.3698	-0.578911	-0.191039	0.0430453	0.0282093	0.167853	0.203054	0.0693403	-0.129736	-0.210537	-0.129646	-0.20459	0.174857	0.314398	0.375952	-0.129736	-0.408382	0.0947263	0.015826	0.000928406	-0.250489	0.0164953	0.732729	1.65794	-0.0608988	-0.228632	0.060222	0.84652	1.51516
0.03	0.186948	-0.0690343	0.0167498	-1.08966	1.36938	-0.578796	-0.182765	0.0416629	0.0278905	0.172206	0.205304	0.0693844	-0.129736	-0.202388	-0.128176	-0.200835	0.17846	0.315511	0.374467	-0.129736	-0.405484	0.0930407	0.0148635	0.00109841	-0.250675	0.0162249	0.733162	1.65637	-0.0603754	-0.229191	0.0609249	0.847532	1.50804
0.04	0.181248	-0.0678677	0.0169298	-1.09	1.36892	-0.578649	-0.173948	0.0407898	0.0279472	0.176661	0.207663	0.0691746	-0.129736	-0.193354	-0.127292	-0.197708	0.182925	0.317285	0.373385	-0.129736	-0.402237	0.0917129	0.0139386	0.00129263	-0.250758	0.0158664	0.732828	1.6618	-0.06009	-0.229657	0.0599633	0.845851	1.51999
0.05	0.175118	-0.0668575	0.0171319	-1.09029	1.36843	-0.578508	-0.164658	0.0400187	0.0279144	0.181179	0.210271	0.0695067	-0.129736	-0.183757	-0.126546	-0.194243	0.1876	0.319085	0.371446	-0.129736	-0.398639	0.0904814	0.0129947	0.00154625	-0.250667	0.0157331	0.733037	1.65961	-0.0599548	-0.230236	0.0591419	0.845906	1.52142
0.06	0.168797	-0.0660201	0.0173472	-1.09051	1.36793	-0.578416	-0.155335	0.0393224	0.0276189	0.185521	0.212637	0.0702189	-0.129736	-0.174075	-0.125856	-0.190171	0.192125	0.320717	0.368683	-0.129736	-0.394964	0.0894771	0.0119589	0.00182722	-0.250551	0.0153114	0.733104	1.65691	-0.0600144	-0.230662	0.0583948	0.846222	1.52145
0.07	0.162685	-0.0655767	0.0175599	-1.09069	1.36742	-0.578402	-0.146526	0.038951	0.0272387	0.18944	0.214451	0.0707703	-0.129736	-0.16473	-0.125449	-0.185894	0.196575	0.32234	0.365798	-0.129736	-0.391648	0.0890888	0.0108245	0.00202295	-0.250952	0.0152625	0.733464	1.65567	-0.0603005	-0.230754	0.0574944	0.846798	1.52069
0.08	0.15707	-0.0656308	0.0178049	-1.09084	1.36693	-0.578428	-0.138547	0.0391105	0.0271933	0.192831	0.215908	0.0707097	-0.129736	-0.15579	-0.125569	-0.18229	0.201389	0.324404	0.363401	-0.129736	-0.388968	0.0894028	0.00998511	0.00183804	-0.252194	0.0158073	0.734277	1.65876	-0.0604836	-0.230499	0.0564116	0.846977	1.52257
0.09	0.151573	-0.0659237	0.0182075	-1.09097	1.36644	-0.578428	-0.130874	0.0396176	0.0274466	0.195913	0.217424	0.0701648	-0.129736	-0.146653	-0.126018	-0.179657	0.206857	0.32719	0.36097	-0.129736	-0.386455	0.0899801	0.00972501	0.00107756	-0.253844	0.0164076	0.735662	1.66137	-0.0602502	-0.230327	0.0560232	0.84707	1.52324
0.1	0.1457	-0.0660024	0.0189434	-1.09108	1.36594	-0.578411	-0.122826	0.0399431	0.0272821	0.199008	0.219154	0.0698548	-0.129736	-0.136933	-0.126224	-0.176931	0.212535	0.330015	0.357586	-0.129736	-0.383675	0.0902633	0.00946184	0.000124724	-0.255182	0.0168903	0.737723	1.65557	-0.0598584	-0.230707	0.0563776	0.848359	1.51621
0.11	0.139747	-0.065894	0.0199823	-1.09116	1.36546	-0.578431	-0.114792	0.0400202	0.0265215	0.201967	0.220657	0.069874	-0.129736	-0.12714	-0.126281	-0.173552	0.218049	0.332268	0.355112	-0.129736	-0.381223	0.090292	0.00856533	-0.000484127	-0.256085	0.0168071	0.738316	1.66049	-0.0597595	-0.231089	0.0543216	0.846018	1.53719
0.12	0.134166	-0.0657889	0.0210919	-1.09121	1.36501	-0.578493	-0.107443	0.0400221	0.0255929	0.20445	0.221649	0.0699111	-0.129736	-0.11794	-0.126461	-0.169628	0.223215	0.333837	0.354771	-0.129736	-0.37955	0.0904155	0.00722568	-0.000894998	-0.257337	0.0181435	0.739748	1.66047	-0.0599821	-0.231543	0.0521266	0.846622	1.54326
0.13	0.128869	-0.0658468	0.0219745	-1.09118	1.3646	-0.578527	-0.100737	0.0401871	0.0250593	0.206436	0.222215	0.0694306	-0.129736	-0.109312	-0.126854	-0.165738	0.228144	0.335263	0.355289	-0.129736	-0.378201	0.0907848	0.0060826	-0.00149875	-0.258991	0.0198922	0.741239	1.66162	-0.0603495	-0.231776	0.0507471	0.848047	1.54311
0.14	0.123404	-0.0659667	0.0226352	-1.09105	1.36416	-0.578504	-0.0939398	0.0404427	0.0247252	0.208412	0.222912	0.0686854	-0.129736	-0.100677	-0.127169	-0.161877	0.23299	0.336823	0.354211	-0.129736	-0.376556	0.0911723	0.00521593	-0.00225257	-0.260396	0.0207628	0.742337	1.66306	-0.0608779	-0.232114	0.0507134	0.849916	1.53886
0.15	0.117407	-0.0662255	0.0232969	-1.09089	1.36366	-0.578453	-0.0864324	0.0408731	0.0243138	0.210738	0.223961	0.0678858	-0.129736	-0.0912163	-0.127545	-0.158349	0.238421	0.339052	0.351968	-0.129736	-0.374479	0.0915655	0.00436305	-0.00290964	-0.261222	0.0208902	0.743592	1.65907	-0.0616626	-0.232837	0.0509692	0.852428	1.5331
0.16	0.110772	-0.0664195	0.0241866	-1.0907	1.36309	-0.578449	-0.078018	0.0411558	0.0232712	0.213572	0.225611	0.0680067	-0.129736	-0.0808112	-0.127679	-0.154519	0.244285	0.341517	0.348198	-0.129736	-0.371946	0.0918808	0.00328326	-0.00356532	-0.261719	0.0201036	0.743949	1.66161	-0.0625361	-0.233648	0.0501961	0.853541	1.53807
0.17	0.103726	-0.0667881	0.0250288	-1.09044	1.36248	-0.578483	-0.0692383	0.0415442	0.0221616	0.216368	0.227172	0.068471	-0.129736	-0.0699774	-0.127923	-0.1509	0.250281	0.344033	0.344654	-0.129736	-0.368911	0.0924234	0.00247488	-0.00468964	-0.262652	0.020047	0.745902	1.65121	-0.0633831	-0.234472	0.0502231	0.856449	1.52947
